# xmcd CD database file
#
# Track frame offsets:
#	188
#	28125
#	45670
#	83463
#	92633
#	119513
#	140738
#	158738
#	177038
#	185438
#	241463
#	260063
#
# Disc length: 3598 seconds
#
# Revision: 1
# Processed by: cddbd v1.5.1PL0 Copyright (c) Steve Scherf et al.
# Submitted via: CDex 1.51
#
DISCID=9e0e0c0c
DTITLE=David Garrido - El Sonido del Tiempo
DYEAR=1994
DGENRE=New Age
TTITLE0=El sonido del tiempo
TTITLE1=Aire
TTITLE2=Sirimiri
TTITLE3=Fantasia para caballo y hombre
TTITLE4=Truena en la Sabana
TTITLE5=Océano
TTITLE6=Tiempo de paz
TTITLE7=Niebla
TTITLE8=Nostalgia
TTITLE9=Por el bosque
TTITLE10=Tras la lluvia
TTITLE11=Más alla de mi
EXTD=YEAR: 1994
EXTT0=
EXTT1=
EXTT2=
EXTT3=
EXTT4=
EXTT5=
EXTT6=
EXTT7=
EXTT8=
EXTT9=
EXTT10=
EXTT11=
PLAYORDER=
